<svg version="1.1" xmlns="http://www.w3.org/2000/svg" xmlns:xlink="http://www.w3.org/1999/xlink" class="thumbnail-icon" viewBox="20.086400985717773 0.000034332275390625 159.8271942138672 200"><g data-paper-data="{&quot;fillRule&quot;:&quot;evenodd&quot;,&quot;isIcon&quot;:&quot;true&quot;,&quot;iconType&quot;:&quot;icon&quot;,&quot;rawIconId&quot;:&quot;68987&quot;,&quot;selectedEffects&quot;:{&quot;container&quot;:&quot;&quot;,&quot;transformation&quot;:&quot;&quot;,&quot;pattern&quot;:&quot;&quot;},&quot;isDetailed&quot;:false,&quot;bounds&quot;:{&quot;x&quot;:228.169334933658,&quot;y&quot;:121.42892944299517,&quot;width&quot;:93.6613301326839,&quot;height&quot;:117.20325632605376},&quot;iconStyle&quot;:&quot;standalone&quot;}"><path d="M77.55015,31.46699c-3.9733,5.84709 -7.19069,13.25709 -9.65856,22.21724c-2.47213,8.96014 -2.89799,17.88835 -1.28823,26.78887c0.21506,1.28823 0.64518,3.51123 1.28823,6.67539c0.64518,3.1748 1.06891,5.48085 1.29036,6.92665c0.2108,1.4458 0.53446,3.56234 0.96458,6.36025c0.42373,2.78727 0.61324,4.90593 0.56001,6.35174c-0.05323,1.45645 -0.10647,3.24933 -0.15757,5.39568c-0.05749,2.14848 -0.37689,3.83702 -0.96884,5.07202c-0.58769,1.23713 -1.31804,2.51472 -2.16977,3.85831c-0.8645,1.34998 -1.99091,2.43806 -3.38561,3.2983c-1.39257,0.86024 -3.05343,1.50968 -4.98685,1.93767c-4.0755,1.06891 -7.66978,0.37902 -10.78283,-2.09311c-3.11092,-2.47639 -5.28495,-5.76405 -6.51782,-9.9013c-1.23713,-4.12874 -2.04414,-8.49808 -2.41677,-13.12082c-0.37689,-4.61209 0.18525,-8.63436 1.6928,-12.07107c-5.58518,4.94639 -10.05887,10.36336 -13.44447,16.26368c-3.38135,5.90032 -5.4702,11.64095 -6.27721,17.21548c-0.80062,5.58731 -1.20519,10.14617 -1.20519,13.68934c0,3.53892 0.26829,6.91388 0.80701,10.14191c0.96245,6.00466 3.32173,12.41815 7.07783,19.22981c3.75611,6.80954 9.38814,12.63534 16.90248,17.471c3.32173,2.25068 6.75844,3.1088 10.30161,2.56369c3.54317,-0.53233 6.8649,-1.78862 9.98221,-3.77953c3.10667,-1.97813 6.16649,-4.63338 9.1752,-7.96363c3.0002,-3.32173 5.57454,-6.62429 7.72088,-9.90343c2.1506,-3.27062 4.0244,-6.51782 5.63416,-9.73521c3.43671,-7.08209 5.52769,-16.97487 6.27721,-29.69751c0.74739,-12.70986 0.0511,-21.16749 -2.09098,-25.34946c8.47679,8.58326 15.01804,17.38583 19.63651,26.39495c4.61209,9.01551 6.01105,18.89764 4.18836,29.61873c-0.54085,3.53892 -1.6417,7.26734 -3.30256,11.18953c-1.66512,3.92006 -3.67945,8.23618 -6.03447,12.9526c-1.0753,2.04414 -1.85037,3.6028 -2.33798,4.67384c-0.48122,1.06891 -1.12641,2.46148 -1.92916,4.18197c-0.80488,1.71623 -1.28823,2.97252 -1.45006,3.77953c-0.1597,0.80701 -0.32153,1.82482 -0.48335,3.06195c-0.16396,1.235 -0.02768,2.06543 0.40244,2.49555c0.42799,0.42799 1.01568,0.94541 1.76946,1.52885c0.75165,0.58769 1.79714,0.86024 3.14073,0.80701c1.33934,-0.04897 2.97678,-0.18738 4.91019,-0.40883c1.92703,-0.20654 4.18623,-0.63666 6.76056,-1.2861c6.11325,-2.13783 10.99577,-3.96265 14.64754,-5.4702c3.64964,-1.49904 8.34264,-3.88812 14.08327,-7.15662c5.73849,-3.27914 10.40808,-6.7052 14.00235,-10.29948c3.59215,-3.59428 7.10977,-8.34051 10.54222,-14.25148c3.43884,-5.90245 5.95568,-12.43944 7.56544,-19.63864c4.0755,-18.45262 1.69067,-36.77108 -7.16088,-54.96392c-8.84942,-18.19284 -22.08096,-33.13635 -39.67546,-44.83053c2.35715,4.72494 4.66745,11.64095 6.92026,20.76931c4.17984,17.06005 2.47,25.31752 -5.1508,24.78306c-1.61615,-0.2108 -3.37922,-0.69203 -5.31263,-1.4458c-8.47679,-3.54317 -14.94138,-8.90904 -19.3959,-16.0976c-4.45239,-7.18856 -6.81593,-16.60863 -7.08422,-28.25171c-0.26616,-11.64095 2.33798,-25.45379 7.80819,-41.44492c-1.3947,0.85811 -3.21739,2.11654 -5.4702,3.78166c-2.25281,1.66299 -6.14519,5.22746 -11.66863,10.69766c-5.52769,5.48085 -10.27819,11.14056 -14.2451,16.98765z" fill-rule="evenodd"></path></g></svg>